<svg width="13" height="25" viewBox="0 0 13 25" fill="none" xmlns="http://www.w3.org/2000/svg">
<path fill-rule="evenodd" clip-rule="evenodd" d="M1.62798 12.0093L12.4133 1.17657C12.4223 1.16756 12.4319 1.15796 12.4409 1.14835C12.6835 0.883581 12.6709 0.466312 12.4133 0.217152C12.2842 0.086868 12.1095 0.0142212 11.9288 0.0142212C11.7535 0.0172231 11.5866 0.0904703 11.4623 0.217152L0.192456 11.5296C-0.0591063 11.7968 -0.0591063 12.2219 0.192456 12.4891L11.4623 23.8201C11.7295 24.0789 12.1462 24.0789 12.4133 23.8201C12.4223 23.8105 12.4319 23.8015 12.4409 23.7919C12.6835 23.5272 12.6709 23.1099 12.4133 22.8607L1.62798 12.0093Z" fill="#28A9E0"/>
</svg>
