<svg width="43" height="43" viewBox="0 0 43 43" fill="none" xmlns="http://www.w3.org/2000/svg">
<path fill-rule="evenodd" clip-rule="evenodd" d="M21.4995 41.348C10.3481 41.348 1.27531 32.357 1.27531 21.305C1.27531 10.254 10.3481 1.26404 21.4995 1.26404C32.651 1.26404 41.7237 10.254 41.7237 21.305C41.7237 32.357 32.651 41.348 21.4995 41.348ZM21.4995 0.300049C9.81219 0.300049 0.303528 9.72305 0.303528 21.305C0.303528 32.888 9.81219 42.3111 21.4995 42.3111C33.1868 42.3111 42.6964 32.888 42.6964 21.305C42.6964 9.72305 33.1868 0.300049 21.4995 0.300049ZM37.4552 12.661C37.5329 13.234 37.5773 13.849 37.5773 14.513C37.5773 16.341 37.2322 18.397 36.1949 20.967L30.6409 36.881C36.0466 33.757 39.6833 27.952 39.6833 21.305C39.6833 18.172 38.875 15.226 37.4552 12.661ZM21.8184 22.881L16.3632 38.592C17.9919 39.066 19.7144 39.326 21.4995 39.326C23.6166 39.326 25.6479 38.962 27.5379 38.304C27.4895 38.227 27.4451 38.145 27.4087 38.056L21.8184 22.881ZM33.7751 20.395C33.7751 18.169 32.9678 16.626 32.2756 15.426C31.3543 13.942 30.4895 12.685 30.4895 11.201C30.4895 9.54404 31.7579 8.00204 33.543 8.00204C33.6237 8.00204 33.6994 8.01204 33.7781 8.01704C30.543 5.07904 26.2332 3.28604 21.4995 3.28604C15.1473 3.28604 9.55893 6.51504 6.30663 11.408C6.73449 11.42 7.13611 11.43 7.47718 11.43C9.37932 11.43 12.3238 11.201 12.3238 11.201C13.3037 11.143 13.4197 12.57 12.4399 12.685C12.4399 12.685 11.454 12.799 10.3591 12.857L16.9798 32.375L20.9596 20.549L18.1271 12.857C17.1483 12.799 16.2199 12.685 16.2199 12.685C15.2401 12.628 15.3552 11.143 16.335 11.201C16.335 11.201 19.337 11.43 21.1241 11.43C23.0263 11.43 25.9708 11.201 25.9708 11.201C26.9506 11.143 27.0667 12.57 26.0868 12.685C26.0868 12.685 25.0999 12.799 24.0051 12.857L30.5773 32.227L32.3906 26.221C33.1767 23.728 33.7751 21.938 33.7751 20.395ZM3.31567 21.305C3.31567 28.437 7.49835 34.601 13.565 37.523L4.89086 13.972C3.88278 16.212 3.31567 18.693 3.31567 21.305Z" fill="#BABFC6"/>
</svg>
